<svg xmlns="http://www.w3.org/2000/svg" xmlns:xlink="http://www.w3.org/1999/xlink" aria-hidden="true" focusable="false" width="1em" height="1em" style="-ms-transform: rotate(360deg); -webkit-transform: rotate(360deg); transform: rotate(360deg);" preserveAspectRatio="xMidYMid meet" viewBox="0 0 21 21"><g fill="none" fill-rule="evenodd"><path d="M16.5 3.5a2 2 0 0 1 2 2v10a2 2 0 0 1-2 2l-2.999-.001l-2.294 2.294a1 1 0 0 1-1.32.083l-.094-.083l-2.294-2.294L4.5 17.5a2 2 0 0 1-2-2v-10a2 2 0 0 1 2-2z" stroke="#6564A6" stroke-linecap="round" stroke-linejoin="round"/><path d="M10.499 11.5c.5 0 1-.5 1-1s-.5-1-1-1s-.999.5-.999 1s.499 1 .999 1zm-4 0c.5 0 1-.5 1-1s-.5-1-1-1s-.999.5-.999 1s.499 1 .999 1zm8 0c.5 0 1-.5 1-1s-.5-1-1-1s-.999.5-.999 1s.499 1 .999 1z" fill="#6564A6"/></g></svg>