<svg xmlns="http://www.w3.org/2000/svg" xmlns:xlink="http://www.w3.org/1999/xlink" aria-hidden="true" focusable="false" width="1em" height="1em" style="-ms-transform: rotate(360deg); -webkit-transform: rotate(360deg); transform: rotate(360deg);" preserveAspectRatio="xMidYMid meet" viewBox="0 0 32 32"><path d="M25 11H15a1 1 0 0 0-1 1v4a6.005 6.005 0 0 0 5 5.91V28h-3v2h8v-2h-3v-6.09A6.005 6.005 0 0 0 26 16v-4a1 1 0 0 0-1-1zm-1 5a4 4 0 0 1-8 0v-3h8z" fill="#6564A6"/><path d="M15 1h-5a1 1 0 0 0-1 1v7.37A6.09 6.09 0 0 0 6 15v14a1 1 0 0 0 1 1h5v-2H8V15c0-3.188 2.231-4.02 2.316-4.051L11 10.72V3h3v5h2V2a1 1 0 0 0-1-1z" fill="#6564A6"/></svg>